<svg width="25" height="24" viewBox="0 0 25 24" fill="none" xmlns="http://www.w3.org/2000/svg">
<g clip-path="url(#clip0_15_3407)">
<path d="M12.1239 7.22201C11.2479 7.22201 9.89194 6.22601 8.46394 6.26201C6.57994 6.28601 4.85194 7.35401 3.87994 9.04601C1.92394 12.442 3.37594 17.458 5.28394 20.218C6.21994 21.562 7.32394 23.074 8.78794 23.026C10.1919 22.966 10.7199 22.114 12.4239 22.114C14.1159 22.114 14.5959 23.026 16.0839 22.99C17.5959 22.966 18.5559 21.622 19.4799 20.266C20.5479 18.706 20.9919 17.194 21.0159 17.11C20.9799 17.098 18.0759 15.982 18.0399 12.622C18.0159 9.81401 20.3319 8.47001 20.4399 8.41001C19.1199 6.47801 17.0919 6.26201 16.3839 6.21401C14.5359 6.07001 12.9879 7.22201 12.1239 7.22201ZM15.2439 4.39001C16.0239 3.45401 16.5399 2.14601 16.3959 0.850006C15.2799 0.898006 13.9359 1.59401 13.1319 2.53001C12.4119 3.35801 11.7879 4.69001 11.9559 5.96201C13.1919 6.05801 14.4639 5.32601 15.2439 4.39001Z" fill="white"/>
</g>
<defs>
<clipPath id="clip0_15_3407">
<rect width="24" height="24" fill="white" transform="translate(0.5)"/>
</clipPath>
</defs>
</svg>
