<svg width="32" height="32" viewBox="0 0 32 32" fill="none" xmlns="http://www.w3.org/2000/svg">
<path d="M27.96 1.33333H24.04C22.3466 1.33333 21.3333 2.34667 21.3333 4.04V7.96C21.3333 9.65333 22.3466 10.6667 24.04 10.6667H27.96C29.6533 10.6667 30.6666 9.65333 30.6666 7.96V4.04C30.6666 2.34667 29.6533 1.33333 27.96 1.33333ZM28.8133 6.24C28.32 7.81333 26.6 8.66667 26 8.66667C25.4 8.66667 23.6933 7.84 23.1866 6.24C23.1066 6 23.0666 5.73333 23.0666 5.48C23.0666 4.61333 23.5066 3.72 24.4266 3.42667C24.9733 3.25333 25.56 3.34667 25.9733 3.69333C26.4 3.36 26.9866 3.25333 27.5466 3.42667C28.7733 3.81333 29.16 5.18667 28.8133 6.24Z" fill="#EF6820"/>
<path opacity="0.4" d="M27.96 10.6667H24.04C22.3467 10.6667 21.3334 9.65333 21.3334 7.96V4.04C21.3334 3.50667 21.44 3.05333 21.6267 2.66667H9.33335C5.65335 2.66667 2.66669 5.64 2.66669 9.30667V17.28V18.6133C2.66669 22.28 5.65335 25.2533 9.33335 25.2533H11.3334C11.6934 25.2533 12.1734 25.4933 12.4 25.7867L14.4 28.44C15.28 29.6133 16.72 29.6133 17.6 28.44L19.6 25.7867C19.8534 25.4533 20.2534 25.2533 20.6667 25.2533H22.6667C26.3467 25.2533 29.3334 22.28 29.3334 18.6133V10.36C28.9467 10.56 28.4934 10.6667 27.96 10.6667Z" fill="#EF6820"/>
<path d="M16 16C15.2534 16 14.6667 15.4 14.6667 14.6667C14.6667 13.9333 15.2667 13.3333 16 13.3333C16.7334 13.3333 17.3334 13.9333 17.3334 14.6667C17.3334 15.4 16.7467 16 16 16Z" fill="#EF6820"/>
<path d="M21.3333 16C20.5867 16 20 15.4 20 14.6667C20 13.9333 20.6 13.3333 21.3333 13.3333C22.0667 13.3333 22.6667 13.9333 22.6667 14.6667C22.6667 15.4 22.08 16 21.3333 16Z" fill="#EF6820"/>
<path d="M10.6666 16C9.91998 16 9.33331 15.4 9.33331 14.6667C9.33331 13.9333 9.93331 13.3333 10.6666 13.3333C11.4 13.3333 12 13.9333 12 14.6667C12 15.4 11.4133 16 10.6666 16Z" fill="#EF6820"/>
</svg>
